<?xml version="1.0" encoding="iso-8859-1"?>
<!-- Generator: Adobe Illustrator 19.0.0, SVG Export Plug-In . SVG Version: 6.00 Build 0)  -->
<svg version="1.1" id="Capa_1" xmlns="http://www.w3.org/2000/svg" xmlns:xlink="http://www.w3.org/1999/xlink" x="0px" y="0px"
	 viewBox="0 0 344.461 344.461" style="enable-background:new 0 0 344.461 344.461;" xml:space="preserve">
<g>
	<path style="fill:#FFE64C;" d="M141.661,303.711c-56.8,0-102.8-46-102.8-102.8s46-102.8,102.8-102.8s102.8,46,102.8,102.8
		c0,27.2-10.8,53.6-30,72.8C194.861,292.911,168.861,303.711,141.661,303.711z"/>
	<path style="fill:#FFE64C;" d="M130.061,193.711c-2.8-0.4-5.6-1.2-8.4-2.4c-3.6-1.2-6.8-3.2-9.2-6.4c-2-2.8-2.8-6.4-2.8-10
		c0-7.6,4-14.4,10.4-18.4c3.6-2.4,7.6-4.4,12-5.2l7.2-1.6v46L130.061,193.711z"/>
	<path style="fill:#FFE64C;" d="M143.661,201.711l7.2,1.6c4.8,1.2,9.6,2.8,14,5.2c6.4,3.6,10.4,10.4,10,18c0,7.6-4,14.8-10.8,18.4
		c-4.4,2.4-8.8,4.4-14,5.2l-7.2,1.2L143.661,201.711z"/>
	<path style="fill:#FFE64C;" d="M141.661,332.511c-72.8,0.8-132.4-57.6-132.8-130.4c-0.8-71.2,55.2-130,126.4-132.8h4.8h2
		c72.4,0,131.6,58.8,131.6,131.2v1.6C272.461,274.111,213.661,332.511,141.661,332.511z M141.661,93.711
		c-59.2,0-106.8,48-106.8,107.2s48,106.8,107.2,106.8s106.8-48,106.8-107.2c0-28.4-11.2-55.6-31.6-75.6
		C197.261,104.911,170.061,93.311,141.661,93.711L141.661,93.711z"/>
</g>
<g>
	<path style="fill:#EAB43B;" d="M271.261,75.711c-30.4-30.4-77.6-37.2-115.2-16.4h1.2h0.4h1.2h0.4h0.8l0,0h0.4l0,0h1.2h0.4h1.2h0.4
		h1.2h0.4h0.8h0.4h0.8h0.8l1.2,0.4h0.4l1.2,0.4l0,0h0.4h0.8l0,0h0.4l0,0l1.2,0.4h0.4l1.2,0.4h0.4h0.8l0.8,0.4h0.8l0.8,0.4h1.2
		l0.8,0.4h0.4h0.8h0.8l0,0l0.8,0.4l0,0l0.8,0.4h0.4l0.8,0.4l0,0l0.8,0.4l0.8,0.4l0.8,0.4l0,0l0.8,0.4h1.2l0.8,0.4h0.8l0.8,0.4h0.4
		l0.8,0.4l0.8,0.4l0,0l0.8,0.4l0.8,0.4l0,0l0.8,0.4l0,0l0.8,0.4l0.8,0.4l0,0l0.8,0.4l0,0l0.4,0.4l0,0l0.8,0.4l0,0l1.2,0.8l1.2,0.8
		l0.8,0.4l0.8,0.4l0.8,0.4l0.8,0.4l0.8,0.4l0.4,0.4l0.8,0.4l0,0l0.4,0.4l0,0l0.8,0.4l0.8,0.4l0.4,0.4l0.8,0.4l0,0l0.8,0.4l1.2,0.8
		l0,0l0.4,0.4l0.8,0.4l0,0l0.4,0.4l0,0l0.8,0.4l0.8,0.4l0,0l0.8,0.4l0,0l0.8,0.4l0,0l0.8,0.4l0.8,0.4l0.8,0.4h0.4l0,0l1.2,0.8h0.4
		l0,0l0,0l1.2,0.8l0,0l0,0l1.2,0.8l0,0l0.4,0.4l0.8,0.8l0.4,0.4l0.8,0.8l0,0h0.4l0.8,0.8l0.4,0.4l0,0l0.8,0.8h0.4l0,0l0.8,0.8
		l0.4,0.4l0,0l1.2,0.8l0,0l1.2,0.8l0,0l0,0l0.8,0.8l0.4,0.4l0,0l0.8,0.8l0,0l0.4,0.4l0.8,0.8l0.4,0.4l0.8,0.8l0.4,0.4l0.8,0.8l0,0
		l0,0l0.8,0.8l0,0l1.2,1.2l0,0l1.2,1.2l0,0l1.2,1.2l0,0l0.4,0.4l0.8,0.8l0,0l1.2,1.2l0,0l0.8,0.8l0,0l0.4,0.4l0.4,0.8l0,0l0.4,0.4
		l0.4,0.8l0,0l0.4,0.8l0,0l0.4,0.4l0,0l0.8,0.8l0.4,0.4l0,0l0.4,0.8l0.4,0.8l0.4,0.8l0.4,0.4l0,0l0.8,0.8l0,0l0.4,0.4l0.8,0.8l0,0
		l0.4,0.8l0.4,0.8l0.4,0.8l0.4,0.8l0.4,0.8l0.4,0.8l0.4,0.8l0,0l0.4,0.8l0.4,0.8l0,0l0.4,0.8l0.4,0.8l0.4,0.4l0.4,0.8l0,0l0.4,0.4
		l0,0l0.4,0.8l0.4,0.8l0.4,0.8l0.4,0.4l0.4,1.2l0.4,0.4l0.4,1.2l0.4,0.4l0.8,1.2l0.4,0.4l0,0l0.4,1.2l0.4,0.4l3.201,3.2l0,0l0.4,0.4
		l0,0l0.4,0.8l0,0l0.4,0.8l0.4,0.8l0.4,0.4l0.4,1.2l0,0v0.4l0,0l0.4,1.2v0.4l0.4,1.2l0,0v0.4l0.4,1.2l0,0v0.4l0,0l0.4,0.8l0,0v0.4
		l0.4,1.2l0,0v1.2v0.4v1.2l0.4,0.4v0.8l0.4,0.4v0.8v0.4l0.4,1.2l0,0l0.4,1.6l0,0v0.4l0.4,0.8v0.4v0.4v0.4v0.8v0.4v0v0.4v0.4l0,0v0.8
		v0.4v0.4v0.4v0.8v0.4v0v0.4v0.4v0.4v0.4v0.4v0.8v0.4v0.4v0.4v0.8v0.4v0.4l0,0v0.4v0.4v0.4v0.4l0,0l0.4,1.2v-0.4v0.4v0.8v0.4v0.4
		v0.4v0.8v0.4v0.4v0v0.4v0.4v0.4v0.4v0.8v1.6l0,0v0.8v0.8v1.6v1.2v0.8v0.8v1.2l0,0l0,0l0,0l0,0l0,0v0.8l0,0v1.6v0.4v1.6v0.4l0,0v3.6
		c3.2-4.8,5.6-9.6,8-14.8c16-36.8,8-79.2-20.4-107.6L271.261,75.711z"/>
	<path style="fill:#EAB43B;" d="M277.261,198.911c0-0.8-9.2-59.2-37.6-92.4c-25.2-29.2-84.4-41.2-85.2-41.2l-16-3.2l14.4-8
		c50-27.2,112.4-9.2,140,40.8c15.2,28,16.8,61.6,4,90.8c-2.4,5.6-5.2,10.8-8.8,15.6l-8.8,12.8L277.261,198.911z"/>
	<path style="fill:#EAB43B;" d="M270.061,244.911c2.4-6.4,4-13.2,5.2-20l0.4-2l1.2-1.2c10-9.6,17.6-20.8,23.2-33.2l0.4-0.8
		c23.6-54-0.8-117.2-55.2-141.2c-37.6-16.8-82-10-113.2,17.2l-1.6,1.2h-2c-6.8,0.8-14,2-20.8,3.6l-18,4.4l12-14.4
		c47.2-55.2,130.4-62,185.6-14.8s62,130.4,14.8,185.6c-6.8,8-14.8,15.2-23.6,21.6l-14.4,11.6L270.061,244.911z"/>
</g>
<path style="fill:#2B2D03;" d="M133.261,188.111l-2.4-0.4c-2.4-0.4-5.2-1.2-7.6-2c-2.4-0.8-4.8-2-6.4-4c-1.2-2-2-4.4-1.6-6.4
	c0-5.6,2.8-10.8,7.6-13.6c3.2-2,6.4-3.6,10-4.4L133.261,188.111z M149.261,209.311c4.4,0.8,8.4,2.4,12.4,4.4
	c4.8,2.4,7.2,7.2,6.8,12.8c0,5.6-2.8,10.8-7.6,13.2c-3.6,2-7.6,3.6-11.6,4.4L149.261,209.311z M210.061,132.111
	c-38-38-99.2-38-137.2,0s-38,99.2,0,137.2s99.2,38,137.2,0c18.4-18.4,28.4-42.8,28.4-68.8
	C238.461,174.911,228.061,150.111,210.061,132.111z M141.661,87.711c62.4,0,112.8,50.4,112.8,112.8s-50.4,113.2-113.2,113.2
	s-112.8-50.8-112.8-113.2c0-30,12-58.8,33.2-80S111.661,87.311,141.661,87.711z M230.461,111.711c-23.6-23.6-55.6-36.8-88.8-36.8
	h-1.6h-4.8l0,0c-69.2,3.6-122.8,62.4-119.2,132s62.4,122.8,132,119.2c66.4-3.2,118.4-57.6,119.6-124l0,0l0,0l0,0v-1.6
	C267.261,167.311,254.061,135.311,230.461,111.711z M283.261,198.111c3.2-4.8,5.6-9.6,8-14.8l0,0c21.6-48.8-0.4-106.4-49.6-128
	c-27.6-12.4-59.6-10.8-86,4c0,0,46.8,1.2,87.2,42C268.861,126.911,283.261,161.711,283.261,198.111z M291.261,55.711
	c-48.8-49.2-128.4-49.2-177.6-0.4c-2.4,2.4-4.8,5.2-7.2,8c7.2-1.6,14.4-2.8,21.6-3.6c46.8-41.2,118.4-36.4,159.6,10.4
	c28.8,33.2,36.4,80,18.4,120l0,0c-6,13.6-14.4,25.6-25.2,36c-1.2,7.2-3.2,14-5.6,20.8c12.8-9.2,24-20.8,32.8-34.4
	C340.461,162.511,333.261,97.311,291.261,55.711L291.261,55.711z M202.461,2.511c78.4,0,142,63.6,142,141.6
	c0,54.4-31.2,104.4-80.4,128c-40,67.6-126.8,90-194.4,50s-89.6-126.8-50-194c14.4-24,35.2-43.6,60.4-55.6
	C105.661,28.911,152.061,2.511,202.461,2.511L202.461,2.511z M133.261,138.511c-8.8,1.2-16.8,4.8-24,10c-9.2,6-14.4,16.4-14.4,27.2
	c0,8,3.6,15.6,9.6,20.4c3.2,2.4,6.8,4.4,10.8,5.6c4,1.6,7.6,2.4,11.6,3.2c2,0.4,4,0.8,6.8,1.2v37.2c-5.2-0.8-10.4-1.6-15.6-3.2
	c-4.8-1.6-10-3.2-15.2-4c-6.4,0-9.6,3.6-9.2,11.2c0,4,5.2,8,15.2,11.2c8,2.4,16.4,4,24.8,4.8v12.4c0,4.4,3.6,8,8,8s8-3.6,8-8v-12.8
	c9.6-0.8,18.8-4,26.8-9.6c8.8-6.4,14-16.8,13.6-28c0-11.2-4-19.6-12-24.8c-8.8-5.2-18.4-8.4-28.4-9.6v-34.4c4.8,0.4,9.6,1.6,14,2.8
	c4,1.6,8.4,2.8,12.4,3.2c6,0,9.2-3.2,9.2-10c0-3.2-2.4-6-7.2-8.8c-9.2-4-18.8-6-28.4-6.4v-12.4c0-4.4-3.6-8-8-8s-8,3.6-8,8
	L133.261,138.511z"/>
<g>
</g>
<g>
</g>
<g>
</g>
<g>
</g>
<g>
</g>
<g>
</g>
<g>
</g>
<g>
</g>
<g>
</g>
<g>
</g>
<g>
</g>
<g>
</g>
<g>
</g>
<g>
</g>
<g>
</g>
</svg>
